<svg xmlns="http://www.w3.org/2000/svg" width="83.12742mm" height="133.03356mm" viewBox="0 0 235.63677 377.10301"><title>fgelogo-svg-fge</title><g id="Capa_2" data-name="Capa 2"><g id="Capa_1-2" data-name="Capa 1"><polygon points="117.802 201.876 117.818 201.876 117.827 201.876 117.818 201.844 117.802 201.876" style="fill:#fff"/><path d="M29.69654,97.37565v.52564a.33311.33311,0,0,0,.16216.284l.46072.26511a5.5963,5.5963,0,0,0,4.8928.34218,5.497,5.497,0,0,0,2.73322,4.06187l.45636.26614a.32171.32171,0,0,0,.15872.04134.3042.3042,0,0,0,.165-.04134l.46908-.26614a5.5189,5.5189,0,0,0,2.726-4.05855,5.7289,5.7289,0,0,0,2.107.41044,5.62,5.62,0,0,0,2.77685-.73922l.46071-.26946a.331.331,0,0,0,.16777-.2863V97.389a5.54263,5.54263,0,0,0-2.1478-4.41184,5.52974,5.52974,0,0,0,2.1612-4.39512v-.53125a.33867.33867,0,0,0-.16937-.283l-.45911-.26614a5.58565,5.58565,0,0,0-4.88778-.33657,5.5221,5.5221,0,0,0-2.73321-4.06748l-.45854-.26168a.35291.35291,0,0,0-.32317,0l-.46414.26168a5.53,5.53,0,0,0-2.73322,4.063,5.63566,5.63566,0,0,0-2.10474-.4094,5.52813,5.52813,0,0,0-2.77468.73922l-.44559.25274a.33852.33852,0,0,0-.16388.27072l-.02176.539a5.52957,5.52957,0,0,0,2.14826,4.41859,5.54333,5.54333,0,0,0-2.15891,4.404m11.84834-7.67184a3.489,3.489,0,0,1,.69387-.519,3.56036,3.56036,0,0,1,1.7889-.48086,3.63281,3.63281,0,0,1,1.43538.29752,3.55362,3.55362,0,0,1-2.56614,3.04082l-.91478.26385a3.40663,3.40663,0,0,0-.393-1.06686,3.36441,3.36441,0,0,0-.727-.87676Zm.43723,3.95.90985.265a3.35663,3.35663,0,0,1,.79281.33325A3.60378,3.60378,0,0,1,45.463,96.96292a3.66786,3.66786,0,0,1-1.43538.2942,3.56017,3.56017,0,0,1-1.79726-.48545,3.15633,3.15633,0,0,1-.68551-.51774l-.69055-.65654a3.412,3.412,0,0,0,1.12778-1.94361m-3.42159,7.28271a3.59857,3.59857,0,0,1-1.45107-2.88988A3.69731,3.69731,0,0,1,37.214,97.191l.23213-.92142a2.03505,2.03505,0,0,0,.22136.06711,3.45618,3.45618,0,0,0,.61794.11509c.09173.00447.18392.009.2729.009a3.36876,3.36876,0,0,0,1.13339-.19686l.22652.92932a3.55136,3.55136,0,0,1-1.35773,3.74316m.01626-15.91192A3.55456,3.55456,0,0,1,40.03117,87.911a3.5952,3.5952,0,0,1-.1073.8511l-.22984.91821c-.07547-.0213-.14819-.04707-.21816-.06493a3.6246,3.6246,0,0,0-.9047-.11738,3.51606,3.51606,0,0,0-1.12228.18231l-.22927-.91821a3.647,3.647,0,0,1-.10227-.8511,3.57622,3.57622,0,0,1,1.45943-2.88645m-1.48691,7.5556a1.509,1.509,0,0,1,.71861-.926,1.45117,1.45117,0,0,1,.75708-.20911.81038.81038,0,0,1,.127.00664,1.33208,1.33208,0,0,1,.27622.0481,1.5082,1.5082,0,0,1,.92485.71357,1.53149,1.53149,0,0,1-.55243,2.09237,1.608,1.608,0,0,1-.77.20018,1.45684,1.45684,0,0,1-.39864-.05474,1.48808,1.48808,0,0,1-.92543-.7091,1.53735,1.53735,0,0,1-.15723-1.16191m-5.41216-3.58547a3.6298,3.6298,0,0,1,3.23756.1846,3.68062,3.68062,0,0,1,.68.51659l.69169.65986a3.44577,3.44577,0,0,0-1.12848,1.947L34.24878,92.04a3.71168,3.71168,0,0,1-.79293-.33554,3.62274,3.62274,0,0,1-1.77813-2.70974m1.76977,5.25069a3.47894,3.47894,0,0,1,.79568-.33107l.91535-.26053a3.38789,3.38789,0,0,0,.39314,1.06239,3.59638,3.59638,0,0,0,.7241.88019l-.68046.65757a3.68812,3.68812,0,0,1-.69067.51774,3.58562,3.58562,0,0,1-3.22691.18014,3.58715,3.58715,0,0,1,1.76977-2.70642M198.506,103.9291a5.62488,5.62488,0,0,0-1.12228,1.65067,5.68841,5.68841,0,0,0-1.15181-1.63716,5.59822,5.59822,0,0,0-3.94553-1.60716l-5.33176.04363a.33484.33484,0,0,0-.326.33439l.04535,5.29764a5.61167,5.61167,0,0,0,5.4748,5.55485c.04924.00218.09459.00218.1404.00218a5.65276,5.65276,0,0,0,3.28119-1.05346l1.65743,1.63281a.31707.31707,0,0,0,.22366.09276h.005a.34025.34025,0,0,0,.23431-.09608l1.62273-1.66075a5.61117,5.61117,0,0,0,3.05135,1.00089h.19411a5.61407,5.61407,0,0,0,5.57271-5.65322l-.04638-5.3021a.32515.32515,0,0,0-.326-.32546l-5.29145.04478a5.57932,5.57932,0,0,0-3.96178,1.68079m-2.99213,5.78411-3.63965-3.58764a.31665.31665,0,0,0-.22927-.09276.33279.33279,0,0,0-.23544.09505l-.90643.91924a.31808.31808,0,0,0-.09391.23373.3391.3391,0,0,0,.09391.23259l3.64811,3.59658a3.66478,3.66478,0,0,1-1.86482.50778,3.62789,3.62789,0,0,1-2.56614-1.05346,3.675,3.675,0,0,1-1.09823-2.57106l-.029-3.67823,3.66643-.02909h.1325a3.67563,3.67563,0,0,1,3.57035,3.63574,3.76561,3.76561,0,0,1-.44844,1.79153m1.92081,1.9001-.50159-.49655a5.79882,5.79882,0,0,0,.491-.879,5.67808,5.67808,0,0,0,.50432.87229Zm8.713-7.44486.03573,3.6772a3.66644,3.66644,0,0,1-5.46987,3.21179l3.58044-3.66368a.31815.31815,0,0,0-.00563-.45956l-.92541-.906a.3173.3173,0,0,0-.22928-.09505H203.131a.32113.32113,0,0,0-.22869.09963l-3.56919,3.648a3.66312,3.66312,0,0,1,3.14812-5.481ZM32.30894,144.55085c.10742.00893.21587.00893.326.00893h.122a5.64427,5.64427,0,0,0,3.32643-1.144l1.73851,1.66854a.31313.31313,0,0,0,.22595.09287h.00561a.30968.30968,0,0,0,.22366-.09952l1.67026-1.7424a5.72651,5.72651,0,0,0,2.92275.992c.10788.00561.22091.01008.32374.01008a5.72718,5.72718,0,0,0,4.16871-1.78042,5.66963,5.66963,0,0,0,1.59971-4.10206l-.11292-5.452a.32485.32485,0,0,0-.326-.32088c-.00562,0-5.45133.11292-5.45133.11292a5.76145,5.76145,0,0,0-4.04961,1.77481,5.98094,5.98094,0,0,0-1.16019,1.78157,5.64113,5.64113,0,0,0-1.23131-1.72683,5.73739,5.73739,0,0,0-3.98972-1.60807H32.5137l-5.4425.11624a.3363.3363,0,0,0-.321.33669l.11578,5.4496a5.76572,5.76572,0,0,0,5.443,5.632m8.12706-8.63139a3.8293,3.8293,0,0,1,2.67961-1.17542l3.81748-.07707.08154,3.83248a3.825,3.825,0,0,1-3.73971,3.88848h-.08109a3.79647,3.79647,0,0,1-1.87547-.49426l3.68556-3.8594a.329.329,0,0,0,.08887-.236.29872.29872,0,0,0-.10456-.22812l-.92541-.89244a.35847.35847,0,0,0-.23546-.08944.3367.3367,0,0,0-.23705.10181l-3.66643,3.84371a3.80988,3.80988,0,0,1,.51214-4.6143m-2.47156,5.08292a4.84589,4.84589,0,0,0,.58324.97742l-.548.57259-.57488-.55129a5.5168,5.5168,0,0,0,.53961-.99872m-5.32329-6.03457a3.8234,3.8234,0,0,1,3.35059,5.64978L32.158,136.92826a.31789.31789,0,0,0-.22423-.09287.3068.3068,0,0,0-.23705.103l-.90195.9315a.33232.33232,0,0,0-.08955.23488.32677.32677,0,0,0,.10066.22812l3.83993,3.70182a3.80848,3.80848,0,0,1-1.93193.57706H32.6328a3.78,3.78,0,0,1-2.6416-1.06812,3.735,3.735,0,0,1-1.17426-2.665l-.07766-3.82813Zm15.78492-11.25616.25274-.46082a.347.347,0,0,0-.00447-.3321l-.2729-.45189a5.66972,5.66972,0,0,0-4.16814-2.675,5.71641,5.71641,0,0,0-.43838-4.94194l-.28286-.45075a.31762.31762,0,0,0-.27794-.15884l-.534.01122a5.67,5.67,0,0,0-4.40748,2.27251A5.59989,5.59989,0,0,0,33.925,114.4315h-.11349l-.51453.01008a.33819.33819,0,0,0-.27278.15884l-.28355.46414a5.66921,5.66921,0,0,0-.24049,4.96771,5.64494,5.64494,0,0,0-4.06072,2.84946l-.25377.46082a.348.348,0,0,0,.0055.32649l.2729.45407a5.59857,5.59857,0,0,0,4.1709,2.6818,5.66016,5.66016,0,0,0,.44283,4.933l.269.45189a.33931.33931,0,0,0,.284.16216l.54809-.00893a5.685,5.685,0,0,0,4.39225-2.27812,5.58807,5.58807,0,0,0,4.37668,2.097h.10788c.014,0,.02737-.00561.04031-.00561l.49153-.00447a.32406.32406,0,0,0,.28571-.17224l.25721-.46414a5.64236,5.64236,0,0,0,.23373-4.95317,5.66793,5.66793,0,0,0,4.06187-2.8506m-9.14535-4.81231a3.49432,3.49432,0,0,1,.32432-.81079,3.64541,3.64541,0,0,1,2.71764-1.85761,3.6409,3.6409,0,0,1-.11578,3.28795,3.807,3.807,0,0,1-.51.70681l-.662.71357a2.00951,2.00951,0,0,0-.17282-.17338,3.50915,3.50915,0,0,0-1.82967-.93046Zm-5.02072-2.504a3.68953,3.68953,0,0,1,2.78909,1.74687,3.32248,3.32248,0,0,1,.35455.79625l.29637.92714a3.49247,3.49247,0,0,0-1.96387,1.18653l-.68609-.68551a3.71822,3.71822,0,0,1-.53686-.6878,3.65572,3.65572,0,0,1-.25319-3.28348m-.92326,8.48825-.07272.00664a3.665,3.665,0,0,1-2.89308-1.43034,3.65716,3.65716,0,0,1,2.90649-1.5444h.06939a3.7126,3.7126,0,0,1,.79625.09173l.95.21243a3.5193,3.5193,0,0,0-.16995,1.14519,3.47755,3.47755,0,0,0,.22136,1.143l-.93825.25274a3.665,3.665,0,0,1-.86954.123m4.24418,2.80708a3.3108,3.3108,0,0,1-.321.8085,3.61925,3.61925,0,0,1-2.712,1.85646,3.62754,3.62754,0,0,1,.11131-3.28566,3.83178,3.83178,0,0,1,.51831-.70681l.65814-.71242a1.7191,1.7191,0,0,0,.16949.1767,3.49929,3.49929,0,0,0,1.833.92932Zm.88294-2.83846H38.4286a1.54929,1.54929,0,0,1-1.07693-.43277,1.561,1.561,0,0,1,1.05014-2.68295h.03242a1.095,1.095,0,0,1,.137.00561,1.55814,1.55814,0,0,1-.1073,3.1101m4.1418,5.34127a3.64122,3.64122,0,0,1-2.79035-1.74572,3.83739,3.83739,0,0,1-.35615-.79625l-.2863-.92485a3.52143,3.52143,0,0,0,1.79152-1.002c.05543-.05818.10914-.11967.16273-.18346l.69009.68448a3.63819,3.63819,0,0,1,.78846,3.96785m.9819-5.52129h-.07548a3.65736,3.65736,0,0,1-.79075-.08944l-.94889-.21255a3.53546,3.53546,0,0,0,.1689-1.15183,3.35016,3.35016,0,0,0-.2153-1.1374l.93436-.24828a3.86285,3.86285,0,0,1,.86725-.12975h.076a3.6429,3.6429,0,0,1,2.88988,1.43148,3.62576,3.62576,0,0,1-2.906,1.53776M202.522,86.75129a5.60091,5.60091,0,0,0-2.10463.4094,5.53533,5.53533,0,0,0-2.73895-4.063l-.459-.26168a.3054.3054,0,0,0-.16-.03917.31717.31717,0,0,0-.1672.03917l-.45853.26168a5.54116,5.54116,0,0,0-2.73263,4.06748,5.58321,5.58321,0,0,0-4.88665.33657l-.45624.26614a.32938.32938,0,0,0-.16159.283v.53125a5.50466,5.50466,0,0,0,2.15,4.39512,5.55217,5.55217,0,0,0-2.14723,4.41184l.00229.52232a.33145.33145,0,0,0,.16216.2863l.46346.26946a5.585,5.585,0,0,0,4.87827.32878,5.553,5.553,0,0,0,2.73379,4.05855l.46472.26614a.31726.31726,0,0,0,.16777.04134.33758.33758,0,0,0,.16159-.04134l.45739-.26614a5.52713,5.52713,0,0,0,2.73322-4.06187,5.58542,5.58542,0,0,0,4.88778-.34218l.45853-.26511a.33719.33719,0,0,0,.16491-.284v-.52564a5.55574,5.55574,0,0,0-2.15673-4.404,5.53048,5.53048,0,0,0,2.1478-4.41859l-.02634-.539a.33681.33681,0,0,0-.16491-.27072l-.43664-.25274a5.53265,5.53265,0,0,0-2.77641-.73922M190.1687,89.00146a3.59837,3.59837,0,0,1,3.22977.18334,3.65392,3.65392,0,0,1,.6878.519l.68782.65871a3.36486,3.36486,0,0,0-.7303.87676,3.57554,3.57554,0,0,0-.397,1.06686l-.91145-.26385a3.66718,3.66718,0,0,1-.794-.33336,3.603,3.603,0,0,1-1.77264-2.70745m3.92318,7.25247a3.51858,3.51858,0,0,1-.68551.51774,3.56785,3.56785,0,0,1-1.8023.48545,3.649,3.649,0,0,1-1.43364-.2942,3.59939,3.59939,0,0,1,1.77709-2.71089,3.50462,3.50462,0,0,1,.78777-.33325l.91145-.265a3.48659,3.48659,0,0,0,1.12734,1.94361Zm2.96752-11.22937a3.59073,3.59073,0,0,1,1.46,2.88645,3.537,3.537,0,0,1-.11074.8511l-.22583.91821a3.50991,3.50991,0,0,0-1.12-.18231,3.60382,3.60382,0,0,0-.90422.11738c-.07215.01786-.14878.04363-.22092.06493l-.22984-.91821a3.713,3.713,0,0,1-.10456-.8511,3.57628,3.57628,0,0,1,1.45611-2.88645m.01237,15.91192a3.57655,3.57655,0,0,1-1.46114-2.88988,3.21314,3.21314,0,0,1,.10627-.85328l.22251-.92932a3.37915,3.37915,0,0,0,1.13236.19686c.08774,0,.18279-.00458.27679-.009a3.50429,3.50429,0,0,0,.62069-.11509q.10478-.027.22079-.06711l.22652.92142a3.52475,3.52475,0,0,1,.10788.85557,3.59527,3.59527,0,0,1-1.45267,2.88988m1.31685-7.19441a1.49887,1.49887,0,0,1-.93218.7091,1.38875,1.38875,0,0,1-.3936.05474,1.554,1.554,0,0,1-.76108-.20018,1.4885,1.4885,0,0,1-.71519-.93379,1.52131,1.52131,0,0,1,1.0798-1.87215,1.25143,1.25143,0,0,1,.27233-.0481.84106.84106,0,0,1,.13307-.00664,1.474,1.474,0,0,1,.75767.20911,1.533,1.533,0,0,1,.71183.926,1.55155,1.55155,0,0,1-.15265,1.16191m5.56767,3.20973a3.63765,3.63765,0,0,1-1.43435.2997,3.59653,3.59653,0,0,1-1.79772-.47983,3.86466,3.86466,0,0,1-.68837-.51774l-.68436-.65757a3.37788,3.37788,0,0,0,1.12389-1.94258l.91375.26053a3.54988,3.54988,0,0,1,2.56717,3.0375m-1.77481-5.24736a4.08289,4.08289,0,0,1-.79236.33554l-.91375.26282a3.46157,3.46157,0,0,0-1.12389-1.947l.68436-.65986a3.70179,3.70179,0,0,1,.68333-.51659,3.624,3.624,0,0,1,3.23481-.1846,3.64748,3.64748,0,0,1-1.77252,2.70974M34.72632,158.95628a5.72921,5.72921,0,0,0,4.13391-1.94144l2.03716,1.28616a.36153.36153,0,0,0,.17613.047.20673.20673,0,0,0,.07547-.00893.34374.34374,0,0,0,.20465-.14212l1.27322-2.04656a5.61126,5.61126,0,0,0,2.20151.444c.06482,0,.13021,0,.18621-.00561a5.77068,5.77068,0,0,0,5.44915-7.05115l-1.22077-5.31321a.33111.33111,0,0,0-.32374-.25389.25059.25059,0,0,0-.0726.00779l-5.30439,1.22352a5.69552,5.69552,0,0,0-3.59932,2.55766,5.75654,5.75654,0,0,0-.77,1.98507,5.773,5.773,0,0,0-4.61661-2.33069,5.823,5.823,0,0,0-1.30838.15105l-5.3021,1.22008a.3304.3304,0,0,0-.2461.39475l1.2202,5.30989a5.78637,5.78637,0,0,0,5.6152,4.47459c.06711,0,.12919-.00229.19125-.0079M41.599,148.795a3.7846,3.7846,0,0,1,2.37936-1.69877l3.7269-.85328.86107,3.73411a3.81868,3.81868,0,0,1-3.73469,4.66355,3.981,3.981,0,0,1-1.14691-.1767l2.81385-4.52933a.312.312,0,0,0,.04076-.24942.34047.34047,0,0,0-.14532-.20464l-1.09549-.68551a.36391.36391,0,0,0-.17831-.0481.31817.31817,0,0,0-.27633.15655l-2.81039,4.51147a3.79891,3.79891,0,0,1-.4345-4.61992m-1.38728,5.47537a5.61979,5.61979,0,0,0,.7667.83874l-.416.66879-.67382-.41937a5.37744,5.37744,0,0,0,.32316-1.08816M32.51863,156.43a3.77284,3.77284,0,0,1-1.69373-2.37546l-.86107-3.72965,3.72461-.86a3.93527,3.93527,0,0,1,.86782-.0962A3.81417,3.81417,0,0,1,38.196,154.295l-4.49751-2.82609a.2801.2801,0,0,0-.17224-.05359.32272.32272,0,0,0-.2784.15311l-.69009,1.09491a.3593.3593,0,0,0-.04409.25057.31151.31151,0,0,0,.14534.2035l4.51249,2.83835a3.81479,3.81479,0,0,1-4.6529.47422m.55416-42.94568h.19686a5.60962,5.60962,0,0,0,3.04918-1.00089l1.62662,1.66075a.32565.32565,0,0,0,.22984.09608h0a.34506.34506,0,0,0,.23431-.09276l1.654-1.63281a5.63048,5.63048,0,0,0,3.27844,1.05346c.04592,0,.0923,0,.1404-.00218a5.61265,5.61265,0,0,0,5.47594-5.55485l.04479-5.29764a.335.335,0,0,0-.3288-.33439l-5.32444-.04363a5.60638,5.60638,0,0,0-3.94952,1.60716,5.95717,5.95717,0,0,0-1.158,1.63716A5.40048,5.40048,0,0,0,37.123,103.9291a5.5484,5.5484,0,0,0-3.95618-1.68079l-5.29374-.04478a.33.33,0,0,0-.32993.32546l-.04249,5.3021a5.62258,5.62258,0,0,0,5.57214,5.65322m7.692-8.14274a3.64219,3.64219,0,0,1,2.47773-1.05563h.12976l3.66642.02909-.03516,3.67823a3.65864,3.65864,0,0,1-5.518,3.11674l3.64021-3.59658a.33029.33029,0,0,0,.10009-.23259.33711.33711,0,0,0-.09162-.23373l-.90928-.91924a.33393.33393,0,0,0-.24037-.09505.34318.34318,0,0,0-.23156.09276l-3.62956,3.58764a3.68655,3.68655,0,0,1-.45131-1.79153,3.62946,3.62946,0,0,1,1.09261-2.58011m-2.55262,4.89614a5.12013,5.12013,0,0,0,.49151.879l-.50765.49655-.4905-.50331a6.59854,6.59854,0,0,0,.50663-.87229m-8.72862-6.06927,3.66758.03138a3.66574,3.66574,0,0,1,3.1543,5.481l-3.57035-3.648a.33827.33827,0,0,0-.23488-.09963h0a.33388.33388,0,0,0-.23431.09505l-.92314.906a.325.325,0,0,0-.00561.45956l3.586,3.66368a3.66891,3.66891,0,0,1-5.47491-3.21179Zm177.67964,19.95467.27679-.45407a.322.322,0,0,0,.00334-.32649l-.24887-.46082a5.65938,5.65938,0,0,0-4.06347-2.84946,5.65429,5.65429,0,0,0-.23934-4.96771l-.29017-.46414a.31084.31084,0,0,0-.27177-.15884l-.50491-.01008h-.12139a5.61051,5.61051,0,0,0-4.36832,2.09249,5.65981,5.65981,0,0,0-4.4-2.27251l-.53457-.01122a.33772.33772,0,0,0-.28687.15884l-.2746.45075a5.64173,5.64173,0,0,0-.42945,4.94194,5.64365,5.64365,0,0,0-4.17365,2.675l-.27347.45189a.31944.31944,0,0,0-.00779.3321l.25389.46082a5.66194,5.66194,0,0,0,4.05787,2.8506,5.66465,5.66465,0,0,0,.23269,4.95317l.25824.46414a.32523.32523,0,0,0,.29031.17224l.48751.00447a.33084.33084,0,0,1,.03756.00561h.11566a5.5963,5.5963,0,0,0,4.3745-2.097,5.69455,5.69455,0,0,0,4.39227,2.27812s.54017.00893.54681.00893a.3353.3353,0,0,0,.28126-.16216l.27347-.45189a5.66144,5.66144,0,0,0,.43952-4.933,5.5936,5.5936,0,0,0,4.167-2.6818m-8.93727-5.18461a3.39078,3.39078,0,0,1,.35615-.79625,3.68359,3.68359,0,0,1,2.79311-1.74687,3.68592,3.68592,0,0,1-.25444,3.28348,3.73074,3.73074,0,0,1-.53963.6878l-.68494.68551a3.49261,3.49261,0,0,0-1.95884-1.18653Zm-4.91686-2.70757a3.664,3.664,0,0,1,2.72268,1.85761,3.6125,3.6125,0,0,1,.32145.81079l.2461.93608a3.49372,3.49372,0,0,0-1.82518.93046,2.2036,2.2036,0,0,0-.17443.17338l-.65812-.71357a3.40321,3.40321,0,0,1-.51615-.70681,3.64984,3.64984,0,0,1-.11635-3.28795m-1.19546,8.44129h-.066a3.63043,3.63043,0,0,1-2.90775-1.53776,3.65044,3.65044,0,0,1,2.89035-1.43148h.07215a3.77916,3.77916,0,0,1,.86666.12975l.93333.24828a3.68687,3.68687,0,0,0-.213,1.1374,3.61273,3.61273,0,0,0,.16766,1.15183l-.94444.21255a3.69653,3.69653,0,0,1-.799.08944m4.06129,2.97932a3.54477,3.54477,0,0,1-.35844.79625,3.656,3.656,0,0,1-2.79036,1.74572,3.61076,3.61076,0,0,1,.79294-3.96785l.68057-.68448a2.444,2.444,0,0,0,.16777.18346,3.52125,3.52125,0,0,0,1.79382,1.002Zm1.02826-2.7993H197.163a1.55823,1.55823,0,0,1-.10011-3.1101,1.04132,1.04132,0,0,1,.13193-.00561h.03859a1.54315,1.54315,0,0,1,1.09539.481,1.55835,1.55835,0,0,1-1.12562,2.63473m3.88287,5.50343a3.63069,3.63069,0,0,1-2.71753-1.85646,3.8,3.8,0,0,1-.32157-.8085l-.24988-.9339a3.52942,3.52942,0,0,0,1.83184-.92932c.05589-.06035.11624-.11292.17327-.1767l.65768.71242a3.459,3.459,0,0,1,.51.70681,3.63639,3.63639,0,0,1,.11624,3.28566m1.28731-5.46541-.07833-.00664a3.64864,3.64864,0,0,1-.86611-.123l-.93665-.25274a3.5375,3.5375,0,0,0,.22136-1.143,3.49356,3.49356,0,0,0-.17556-1.14519l.94444-.21243a3.824,3.824,0,0,1,.80072-.09173h.07112a3.636,3.636,0,0,1,2.90259,1.5444,3.64914,3.64914,0,0,1-2.88358,1.43034m-102.18566,28.368-1.27378.46529v-2.90992c0-.17338-.05933-.2114-.20191-.15552l-.40208.14315a.27147.27147,0,0,0-.20566.30313v3.51378c0,.17567.05473.2114.20566.15884l1.87776-.68665a.27268.27268,0,0,0,.20237-.30313v-.3723c0-.16892-.057-.20923-.20237-.15666m24.40063-64.00408h-7.07692v1.81054h7.07692ZM110.822,142.42939a.57209.57209,0,0,1,.089.05256,1.96978,1.96978,0,0,1,.21575.17888,5.42773,5.42773,0,0,1,1.82131-.28847,5.82126,5.82126,0,0,1,2.41509.5032,5.97353,5.97353,0,0,0,4.90553,0,5.81984,5.81984,0,0,1,2.40947-.5032,5.45349,5.45349,0,0,1,1.82692.28847,2.084,2.084,0,0,1,.21575-.17888c.02462-.0134.06047-.03917.08394-.05142.02909-.02016.06207-.03584.08944-.05818.07776-.037.15827-.08051.23705-.11188a.53522.53522,0,0,1,.113-.04924l2.13212-.78388a4.61293,4.61293,0,0,1-1.57349-.397,8.02766,8.02766,0,0,0-6.24381,0,4.00555,4.00555,0,0,1-3.48641,0,8.02762,8.02762,0,0,0-6.24379,0,4.61309,4.61309,0,0,1-1.57349.397l2.12936.78388a.87293.87293,0,0,1,.11578.04924c.07879.03138.15987.07272.23534.11188.02462.01786.05933.038.08612.057m8.73709,7.85633a4.01489,4.01489,0,0,1-3.48641,0,7.752,7.752,0,0,0-3.12464-.6318,8.77345,8.77345,0,0,0-1.05243.06367v1.99629a6.01536,6.01536,0,0,1,1.05243-.09058,5.89315,5.89315,0,0,1,2.41509.50216,5.90575,5.90575,0,0,0,4.90553,0,5.892,5.892,0,0,1,2.40947-.50216,6.16562,6.16562,0,0,1,1.06308.09058V149.7176a8.99832,8.99832,0,0,0-1.06308-.06367,7.76468,7.76468,0,0,0-3.119.6318M103.30954,148.984l-.39818.14647a.26256.26256,0,0,0-.20854.29866v2.36642a.86682.86682,0,0,1-.62355.86336c-.41376.15208-.62344-.00229-.62344-.40265V149.8888c0-.17567-.05371-.20923-.20234-.15437l-.40209.13868a.27164.27164,0,0,0-.20018.30748v2.34191c0,.90584.49426,1.30391,1.428.96619a2.06469,2.06469,0,0,0,1.4332-2.00625v-2.34408c0-.17006-.05474-.20911-.20293-.15437m9.63847,11.897a5.86142,5.86142,0,0,1,2.41509.49987,5.88279,5.88279,0,0,0,4.90553,0,6.07187,6.07187,0,0,1,4.82513,0c.12918.05256.26122.10181.40208.15094l.42555-.88237-1.049-1.43813a7.46878,7.46878,0,0,0-2.19429-.30977,7.78446,7.78446,0,0,0-3.119.63856,4.00555,4.00555,0,0,1-3.48641,0,7.77136,7.77136,0,0,0-3.12464-.63856,7.37039,7.37039,0,0,0-2.18754.30977l-1.05014,1.43813.42383.88237c.1404-.04913.27738-.09837.40986-.15094a5.80341,5.80341,0,0,1,2.404-.49987m-5.54477-57.39028h5.38032v-8.278h-6.70507v.92714h-3.75095v1.80951h3.75095v5.07169h-3.75095v1.80837h5.0757ZM107.888,97.02h3.09052v4.66023H107.888Zm2.656,73.61747a6.02054,6.02054,0,0,1,4.81906,0,5.97353,5.97353,0,0,0,4.90553,0,6.0351,6.0351,0,0,1,4.82513,0,7.871,7.871,0,0,0,1.38739.43059l.68711-1.89448a4.95679,4.95679,0,0,1-1.36539-.3802,8.08032,8.08032,0,0,0-6.24381,0,3.99524,3.99524,0,0,1-3.48641,0,8.08028,8.08028,0,0,0-6.24379,0,4.8827,4.8827,0,0,1-1.36541.3802l.685,1.89448a8.2044,8.2044,0,0,0,1.39563-.43059m20.44011-22.16224-.40265-.14876c-.15036-.05589-.199-.01569-.199.15769v2.36527c0,.4015-.21084.55473-.62689.4015a.87493.87493,0,0,1-.62848-.86221v-2.36195c0-.17556-.0481-.24713-.19457-.302l-.4015-.14429c-.15378-.05256-.20018-.01557-.20018.15437v2.34179a2.05491,2.05491,0,0,0,1.42473,2.00522c.9394.341,1.42988-.057,1.42988-.95955v-2.34741a.26018.26018,0,0,0-.20132-.2997m9.31633,3.56863a.33364.33364,0,0,0-.2477-.26958l-.37516-.13971c-.14258-.04924-.20247-.038-.25057.10284l-1.10717,2.93008-.41547-1.04785c-.03184-.07719-.06654-.15437-.09952-.23041.36234-.05932.56927-.38135.56927-.93825a1.76218,1.76218,0,0,0-1.16534-1.71561l-1.371-.49987c-.13536-.04592-.18678-.00893-.19743.13525a.25869.25869,0,0,0-.199-.27507l-2.348-.851c-.15655-.05932-.20406-.01912-.20406.14979v.37688a.26158.26158,0,0,0,.20406.29752l.77724.284v2.91668a.26169.26169,0,0,0,.19457.29523l.40208.14647c.15036.05818.20741.018.20741-.1554v-2.91553l.76669.283c.13193.047.18621.02.194-.09952v3.08433a.26457.26457,0,0,0,.20247.2997l.39921.15208c.15094.05371.208.018.208-.15655v-1.18092l.20419.0749a.68883.68883,0,0,1,.48649.50663l.3645.992c.0694.20464.161.27622.41776.37127l.39143.142a.076.076,0,0,0,.02737.00458c.019.00779.02622.02.04306.02348l.33943.12414c.246.08715.31195.06482.36291-.07719l.1554-.46861,1.22295.44846.156.57706c.04134.179.1191.25389.36176.34115l.37184.13307c.141.05474.18174-.00344.12757-.17567Zm-3.17331.41044-.68219-.25057v-.91363l.68219.246a.61313.61313,0,0,1,.40769.60729c0,.29523-.1459.40814-.40769.31092m2.32393,1.59925.25894-.77953a2.49176,2.49176,0,0,0,.1074-.75147l.05474.019a4.18417,4.18417,0,0,0,.12644.84206l.25044.96516Zm-5.98028-1.53329-1.27219-.46414v-2.90878a.27845.27845,0,0,0-.20018-.30977l-.39977-.14429c-.1482-.04924-.20466-.01122-.20466.16v3.51046a.26917.26917,0,0,0,.20466.302l1.87214.68436c.15094.05371.20579.019.20579-.1554v-.37356a.265.265,0,0,0-.20579-.30084m-36.99334-1.05128-1.32464.48545c-.14933.05027-.19961.12746-.19961.30187v3.5116c0,.17338.05027.21026.19961.15323l.39921-.14315a.27025.27025,0,0,0,.20247-.30187v-1.06251l.723-.265a1.81766,1.81766,0,0,0,1.21126-1.77481c0-.83988-.47365-1.16866-1.21126-.90481m-.08612,1.87994-.63684.23156V152.5627l.63684-.23144c.29363-.10856.46082.0268.46082.34218a.688.688,0,0,1-.46082.67543m9.142-3.63128c-.40322.09849-.74208.15552-.74208-.14086,0-.274.18061-.45075.585-.60054.30806-.113.478-.04031.58038.15872.07547.12311.13032.132.25446.01683l.37688-.31756c.14086-.11967.1806-.2114.11005-.34676-.22812-.46414-.60661-.60386-1.32178-.33886a1.93236,1.93236,0,0,0-1.41144,1.7637c0,1.031.77506.85775,1.37113.72353.36348-.09058.66375-.11967.66375.15769,0,.31756-.23761.53457-.656.6799-.31481.1175-.54236.05256-.63569-.14532-.06207-.15208-.12414-.15769-.26511-.04249l-.359.27507c-.13754.10627-.17441.19239-.12918.33886.19354.51442.61565.67887,1.389.39921a2.03283,2.03283,0,0,0,1.46849-1.815c0-.98417-.69846-.89474-1.27884-.76613m95.51185,18.41027a6.25087,6.25087,0,0,0-4.82181-2.89423,6.27332,6.27332,0,0,0-.51556-5.61188l-.29408-.46414a.32617.32617,0,0,0-.27507-.15208c-.00836,0-.56423.01672-.56423.01672a6.25625,6.25625,0,0,0-4.92637,2.73665,6.19,6.19,0,0,0-4.87987-2.36424c-.07719,0-.15483,0-.23373.00344l-.55244.01786a.32389.32389,0,0,0-.27506.18l-.26627.48315a6.2444,6.2444,0,0,0-.09665,5.632,6.25074,6.25074,0,0,0-4.59976,3.25543l-.25446.49541a.33714.33714,0,0,0,.01615.32329l.29248.46747a6.254,6.254,0,0,0,4.82342,2.89309,6.24229,6.24229,0,0,0,.51111,5.59962l.29922.47193a.32492.32492,0,0,0,.27223.15884c.01121,0,.56365-.02245.56365-.02245a6.23267,6.23267,0,0,0,4.92969-2.73093,6.20777,6.20777,0,0,0,4.87323,2.36756c.08383,0,.16273-.00561.24049-.01237l.553-.01569a.33185.33185,0,0,0,.28126-.17441l.25274-.48648a6.23607,6.23607,0,0,0,.09723-5.6365,6.23383,6.23383,0,0,0,4.611-3.2655l.24438-.50778a.3377.3377,0,0,0-.02519-.31653Zm-10.37206-3.94666a4.61825,4.61825,0,0,1,.36118-.94948,4.29074,4.29074,0,0,1,3.2141-2.22773,4.29361,4.29361,0,0,1-.02464,3.912,3.99812,3.99812,0,0,1-.58817.83656l-.8203.92153a3.844,3.844,0,0,0-2.03706-1.228c-.132-.02909-.26179-.047-.39933-.06825Zm-5.6695-2.83388a4.297,4.297,0,0,1,3.36513,1.98289,4.41142,4.41142,0,0,1,.43494.9181l.3881,1.17542a3.98,3.98,0,0,0-1.31124.51442,3.75659,3.75659,0,0,0-1.03113.9528l-.88466-.85442a3.95465,3.95465,0,0,1-.64749-.78732,4.29277,4.29277,0,0,1-.31367-3.90188m-.798,9.85491a1.43954,1.43954,0,0,1-.15655.00561,4.24923,4.24923,0,0,1-3.37911-1.6753,4.26881,4.26881,0,0,1,3.40315-1.928h.1459a4.42975,4.42975,0,0,1,.86784.085l1.20449.25274a3.16861,3.16861,0,0,0-.11017.3936,3.8181,3.8181,0,0,0,.21747,2.36539l-1.1871.34218a4.27332,4.27332,0,0,1-1.00593.15884m4.96439,2.99272a4.40434,4.40434,0,0,1-.3557.95165,4.3224,4.3224,0,0,1-3.2197,2.2267,4.29952,4.29952,0,0,1,.02737-3.9154,4.19429,4.19429,0,0,1,.58542-.82763l.81755-.92142c.01008.00664.01008.01454.019.01786a3.76751,3.76751,0,0,0,2.0209,1.20222,3.81448,3.81448,0,0,0,.40482.0749Zm.75594-3.11686a2.11292,2.11292,0,0,1-.42154-.04592,1.8904,1.8904,0,0,1,.41593-3.733,1.80726,1.80726,0,0,1,.42338.05027,1.87888,1.87888,0,0,1,.99139.59275,2.42019,2.42019,0,0,1,.18621.24381,1.89255,1.89255,0,0,1-1.59536,2.89206m4.92351,5.95406a4.29554,4.29554,0,0,1-3.37452-1.98507,4.01588,4.01588,0,0,1-.43174-.91707l-.3841-1.17313a3.892,3.892,0,0,0,2.3379-1.4695l.88683.85889a4.43116,4.43116,0,0,1,.6452.784,4.33121,4.33121,0,0,1,.32042,3.90188m.91993-6.25272c-.04478.00344-.09677.00344-.14544.00344a3.85691,3.85691,0,0,1-.86061-.09952l-1.20886-.24828a3.61185,3.61185,0,0,0,.10788-.38925,3.80246,3.80246,0,0,0-.21862-2.36756l1.19386-.33989a4.25624,4.25624,0,0,1,1.00318-.16777h.15036a4.24226,4.24226,0,0,1,3.38414,1.67862,4.26844,4.26844,0,0,1-3.4059,1.93021m-14.74326,21.233a5.91761,5.91761,0,0,0-4.09256-1.64518h-.15655a6.02914,6.02914,0,0,0-2.22888.501,5.95108,5.95108,0,0,0-1.465-6.41706l-4.08248-3.8807a.322.322,0,0,0-.22766-.08715.32927.32927,0,0,0-.23705.10169l-3.88012,4.08317a5.94857,5.94857,0,0,0,3.51046,9.99909l.05371,2.50624a.33624.33624,0,0,0,.10845.23259.31742.31742,0,0,0,.22033.08944c.00836,0,2.5185-.06482,2.5185-.06482a5.93194,5.93194,0,0,0,5.66112,4.85033c.0615.00332.12643.00332.189.00332.04535,0,.09906,0,.14761-.00332a5.85975,5.85975,0,0,0,4.16367-1.83974l3.88906-4.0842a.32842.32842,0,0,0-.0056-.46414Zm-9.99405,3.46351-.89634.02233-.01844-.88569a5.71133,5.71133,0,0,0,1.2352-.387,5.61031,5.61031,0,0,0-.32042,1.25032m-.96127-2.85965-.12631-5.56149a.32064.32064,0,0,0-.09906-.23373.35074.35074,0,0,0-.22755-.0907c-.00836,0-1.29784.02577-1.29784.02577a.32973.32973,0,0,0-.23763.10742.31708.31708,0,0,0-.08612.22927l.12139,5.58726a4.01641,4.01641,0,0,1-3.14927-3.81359,3.98334,3.98334,0,0,1,1.0932-2.854l2.77124-2.9066,2.90317,2.76345a3.944,3.944,0,0,1,1.24138,2.80262,4.02563,4.02563,0,0,1-2.9066,3.94437m9.74921,6.483a3.96947,3.96947,0,0,1-2.80365,1.23245h-.09906a3.98488,3.98488,0,0,1-3.85882-2.95584l5.57947-.14979a.32978.32978,0,0,0,.32145-.34115l-.03126-1.28937a.29533.29533,0,0,0-.104-.23156.32016.32016,0,0,0-.22593-.09173l-5.5749.15105a4.03925,4.03925,0,0,1,3.79675-3.10117h.10169a3.98143,3.98143,0,0,1,2.76128,1.106l2.906,2.76116Zm9.5843-17.93375a5.83449,5.83449,0,0,0-3.6062-1.24024,6.44273,6.44273,0,0,0-.7509.04581,5.91941,5.91941,0,0,0-2.12879.70349,5.90623,5.90623,0,0,0,.1459-2.23564,5.8449,5.8449,0,0,0-2.24056-3.92318l-4.40851-3.41758a.32242.32242,0,0,0-.2019-.06608.34388.34388,0,0,0-.26225.12414l-3.421,4.41756a5.84176,5.84176,0,0,0-1.18548,4.35148,5.955,5.955,0,0,0,5.65046,5.16228l.30256,2.457a.34463.34463,0,0,0,.123.218.33878.33878,0,0,0,.2035.06825h.04307l2.45813-.321a5.91558,5.91558,0,0,0,5.47549,4.2262c.06208.00447.1207.00447.17945.00447a5.53953,5.53953,0,0,0,.74483-.047,5.86672,5.86672,0,0,0,3.92421-2.23334l3.42331-4.4163a.33689.33689,0,0,0-.05369-.46414Zm-9.51937,4.413-.85.10284-.10685-.85213a5.88973,5.88973,0,0,0,1.14244-.48533,6.184,6.184,0,0,0-.18563,1.23463m-1.209-2.72875-.67658-5.45751a.34269.34269,0,0,0-.12139-.2193.34625.34625,0,0,0-.20522-.0726c-.01122,0-.02735.00664-.038.00664l-1.28444.15884a.32693.32693,0,0,0-.28572.36566l.68,5.47434a3.809,3.809,0,0,1-1.9577-.79739,3.95876,3.95876,0,0,1-.714-5.54248l2.434-3.13587,3.1219,2.42677a3.94419,3.94419,0,0,1,1.50306,2.63038,3.99414,3.99414,0,0,1-2.45585,4.16253m10.23225,5.415a3.89007,3.89007,0,0,1-2.62248,1.49184,4.12794,4.12794,0,0,1-.50778.03355,3.95628,3.95628,0,0,1-3.67708-2.52743l5.47377-.70681a.32966.32966,0,0,0,.28069-.36909l-.1633-1.28387a.3237.3237,0,0,0-.32707-.2863.23208.23208,0,0,0-.04031.00229l-5.45921.7012a3.95046,3.95046,0,0,1,3.425-3.41209,4.31129,4.31129,0,0,1,.50766-.03126,3.90264,3.90264,0,0,1,2.414.832l3.123,2.42574Zm19.6489-55.13231-5.43414-.11624h-.12689a5.72736,5.72736,0,0,0-3.99132,1.60807,5.83252,5.83252,0,0,0-1.24081,1.72683,5.75137,5.75137,0,0,0-5.20488-3.55638l-5.45075-.11292a.32249.32249,0,0,0-.32329.32088l-.11566,5.452a5.7773,5.7773,0,0,0,5.774,5.88249c.10845,0,.21243-.00447.31756-.01008a5.74771,5.74771,0,0,0,2.92836-.992l1.65915,1.7424a.33262.33262,0,0,0,.22972.09952h.00561a.317.317,0,0,0,.22927-.09287l1.73679-1.66854a5.63269,5.63269,0,0,0,3.32207,1.144h.12746c.10742,0,.2153,0,.32271-.00893a5.79628,5.79628,0,0,0,3.66759-1.59364,5.71745,5.71745,0,0,0,1.77812-4.03839l.11864-5.4496a.33967.33967,0,0,0-.32936-.33669M195.714,140.53376l-3.67262-3.84371a.327.327,0,0,0-.23992-.10181.33027.33027,0,0,0-.227.08944l-.93436.89244a.34313.34313,0,0,0-.10467.22812.33892.33892,0,0,0,.09173.236l3.68269,3.8594a3.77972,3.77972,0,0,1-1.86643.49426h-.08108a3.82878,3.82878,0,0,1-3.74534-3.88848l.07822-3.83248,3.82367.07707a3.82109,3.82109,0,0,1,3.73915,3.90085,3.75722,3.75722,0,0,1-.54408,1.88887m1.923,2.01862-.5474-.57259a5.73434,5.73434,0,0,0,.58266-.97742,5.25376,5.25376,0,0,0,.53228.99872Zm9.17775-3.67376a3.82244,3.82244,0,0,1-3.81084,3.73308h-.08555a3.83344,3.83344,0,0,1-1.93525-.57706l3.8421-3.70182a.33423.33423,0,0,0,.1057-.22812.32761.32761,0,0,0-.09963-.23488l-.89346-.9315a.31353.31353,0,0,0-.23661-.103.32163.32163,0,0,0-.22755.09287l-3.82871,3.68934a3.81946,3.81946,0,0,1,3.35116-5.64978l3.90188.08268Zm.87447,9.90633-5.302-1.22008a5.86932,5.86932,0,0,0-1.31582-.15105,5.74419,5.74419,0,0,0-4.60756,2.33069,5.74351,5.74351,0,0,0-4.37611-4.54273l-5.30268-1.22352a.2359.2359,0,0,0-.07316-.00779.326.326,0,0,0-.31872.25389l-1.22409,5.31321a5.7643,5.7643,0,0,0,5.44193,7.05115c.06208.00561.12965.00561.1917.00561a5.586,5.586,0,0,0,2.19876-.444l1.27654,2.04656a.326.326,0,0,0,.20579.14212.20825.20825,0,0,0,.06928.00893.36718.36718,0,0,0,.17842-.047l2.03649-1.28616a5.73173,5.73173,0,0,0,3.02009,1.79943,5.82077,5.82077,0,0,0,1.11612.142c.06549.00561.13317.0079.1902.0079a5.77976,5.77976,0,0,0,5.61737-4.47459l1.21905-5.30989a.32962.32962,0,0,0-.24163-.39475m-14.09062,4.63-2.81258-4.51147a.31928.31928,0,0,0-.27736-.15655.33666.33666,0,0,0-.17166.0481l-1.10041.68551a.34548.34548,0,0,0-.14761.20464.32425.32425,0,0,0,.04856.24942l2.81441,4.52933a4.01829,4.01829,0,0,1-1.15423.1767,3.817,3.817,0,0,1-3.72963-4.66355l.85775-3.73411,3.72356.85328a3.82214,3.82214,0,0,1,1.94922,6.31869m1.47237,2.363-.41489-.66879a6.24088,6.24088,0,0,0,.76543-.83874,5.60275,5.60275,0,0,0,.32214,1.08816Zm9.73581-1.72339A3.769,3.769,0,0,1,203.118,156.43a3.83014,3.83014,0,0,1-4.66343-.47422l4.517-2.83835a.32585.32585,0,0,0,.103-.45407l-.68721-1.09491a.33.33,0,0,0-.27853-.15311.2979.2979,0,0,0-.175.05359l-4.49911,2.82609a3.82047,3.82047,0,0,1,3.63964-4.92637,3.86209,3.86209,0,0,1,.86668.0962l3.72415.86ZM75.98378,84.03043a31.47335,31.47335,0,0,0-2.40662,13.01529V132.731c0,13.73893,5.5229,25.11362,16.86964,34.78507,9.02568,7.68868,19.27923,15.98567,26.95336,19.23446l.4149.17556.4165-.17556c7.67413-3.24878,17.93329-11.54578,26.95336-19.23446,11.35121-9.67145,16.87022-21.04614,16.87022-34.78507V97.04572A31.56413,31.56413,0,0,0,159.648,84.03043a20.15421,20.15421,0,0,0-6.13866-7.6786c-6.61953-5.15667-16.52128-8.344-27.27986-8.807V64.1383H121.278v1.99412h-.86622V64.1383h-5.19469v1.99412h-.86V64.1383H109.395v3.40659c-10.75068.45842-20.648,3.64685-27.26978,8.807a20.13567,20.13567,0,0,0-6.1414,7.6786m20.52062,84.18469H94.58024q-1.38728-1.16929-2.746-2.32507C80.98675,156.65022,75.717,145.80346,75.717,132.731v-1.5176l17.53007.0347,1.43824,4.23181a.90764.90764,0,0,0,.85889.61176h.96014v2.49949l-4.24923-1.5657a.90726.90726,0,0,0-1.13671,1.23131l2.32393,5.017L91.224,146.15686a.90745.90745,0,0,0-.1459.80289.8975.8975,0,0,0,.553.60054l3.28176,1.19-3.28176,1.19443a.9046.9046,0,0,0-.59332.85442V159.237a.89789.89789,0,0,0,.38925.74036,1.02223,1.02223,0,0,0,.20407.10845h0l4.87324,1.7984ZM96.491,96.69678V85.50326h4.64614v2.51518h9.72848V85.50326h13.89273v2.51518h9.74131V85.50326h4.6378v3.75095H126.89262v1.814h12.24482v5.07169h-7.25306v1.80951h5.57054l-1.12847.83083v4.24086h-6.7755V95.21273h-6.70507v.92714h-5.33451v1.80951h5.33451v5.07169h-5.33451v1.80837h6.91808v-1.33872h3.61571v1.33872h8.2813v5.06837H130.241v1.81283h6.08541v.30634l3.78061,4.60423h-4.58464v1.81066h6.07375l.39084.47525v4.75745h-4.29056v1.80837H141.987v3.9265H129.61864V118.05728a11.79936,11.79936,0,0,0-23.51106-1.43607h-5.31046v1.81066h5.21713v5.23271H96.55249v1.80837h9.46176v3.9265H93.642V118.90712L99.3086,112.017V98.78022Zm8.65372-19.72425V74.97509h1.578v1.99744H111.205V74.97509h1.36552v4.262h-8.13885v1.81512h8.13885v2.64264H109.06v2.51632h-6.11725V83.69489H99.29522v-8.7198h1.36768v1.99744Zm22.60119,24.70765h-3.08936V97.02h3.08936Zm12.67368,42.25891,1.79668,2.34076-3.08891,1.12835V140.517l2.82438-1.03559-1.635,3.52947a.91285.91285,0,0,0,.10284.92817m-13.475,8.24111v-6.5199l15.84138,5.76842V157.942Zm14.1119,7.05676-1.92918.71242v-1.41018Zm-3.737-1.35991v10.33807h-4.90621V156.09446Zm-44.46878.06493v-6.51325l15.83909-5.76842v6.5199Zm10.37265-1.84753v12.12067H98.31217V157.87706Zm-7.90958-13.08354-1.63166-3.52947,2.82221,1.03559v6.89117l-3.0895-1.12835,1.79726-2.34076a.895.895,0,0,0,.10169-.92817m.87791-8.72644-1.03332-3.03635H106.3743l-1.03055,3.03635Zm8.83717,9.37508,1.93193.71128-1.93193.69673Zm-6.71675-7.56786h4.91125v9.63458L98.31217,147.51Zm7.91393,24.70433,1.58414,3.31475-2.78132-1.02666v-6.88452l3.12464,1.1429-1.84077,2.52525a.9121.9121,0,0,0-.08669.92829m-1.19718,4.21944,4.252,1.568a1.063,1.063,0,0,0,.31367.05371.89235.89235,0,0,0,.66879-.30084.90665.90665,0,0,0,.14544-1.001l-2.315-4.83235,2.22831-3.07208a.8777.8777,0,0,0,.13307-.79293.90292.90292,0,0,0-.55633-.58931L106.621,154.8564l3.27786-1.19329a.89692.89692,0,0,0,.60168-.84984v-8.44244a.94088.94088,0,0,0-.3881-.746,1.22423,1.22423,0,0,0-.20579-.10284l-4.8777-1.79611V136.0917h.96287a.89944.89944,0,0,0,.855-.61176l1.43824-4.23181h19.06108l1.43768,4.23181a.90779.90779,0,0,0,.85945.61176h.96013v5.63421l-4.87323,1.79611a1.03223,1.03223,0,0,0-.20968.10284.92962.92962,0,0,0-.38925.746v8.44244a.90065.90065,0,0,0,.60168.84984l3.27844,1.19329-3.27844,1.19225a.90377.90377,0,0,0-.42383,1.38224l2.22888,3.07208-2.315,4.83235a.9013.9013,0,0,0,.1482,1.001.8916.8916,0,0,0,.66706.30084,1.09151,1.09151,0,0,0,.31424-.05371l4.25094-1.56352v3.19519h-.96013a.90421.90421,0,0,0-.85328.59722l-1.44385,3.94666H108.28218l-1.44042-3.94666a.90368.90368,0,0,0-.85-.59722h-.96287Zm10.44148-50.52911v-6.13969a10.057,10.057,0,0,1,2.34466-.27965,9.93426,9.93426,0,0,1,2.72818.38135v14.10906h1.80894V109.16307a10.001,10.001,0,0,1,5.45248,8.89421v11.34217h-5.45248v-4.026h-1.80894v4.026h-5.07284V116.66038h-1.80562v12.73907h-5.84057V118.05728a10.00486,10.00486,0,0,1,5.84057-9.08328v5.51236Zm15.133,29.1732v1.408l-1.93033-.69673ZM127.818,164.11077l1.58975-3.31475a.92571.92571,0,0,0-.08383-.92829l-1.84478-2.52525,3.12419-1.1429v6.89231Zm4.59529-18.3845V136.0917h4.90621V147.51Zm-2.1265-11.4418-1.02723-3.03635h11.21426L139.44,134.28447ZM96.50439,159.94939l-1.92416-.71242,1.92416-.69776Zm1.80778,11.35568V170.0212H105.355l.99253,2.70871h-6.27334q-.88326-.70292-1.762-1.42484m19.50289,13.29723c-4.48123-1.9885-9.89179-5.72594-15.40919-10.03276H133.2286c-5.52072,4.30682-10.93013,8.04426-15.41354,10.03276m17.73861-11.87239h-6.265l.98475-2.70871h8.60505q-1.654,1.3756-3.32482,2.70871M159.92031,132.731c0,13.07243-5.27807,23.91919-16.12162,33.159q-1.35292,1.15246-2.74776,2.32507h-1.92357v-6.33094L144,160.08578h0a1.09892,1.09892,0,0,0,.21083-.10845.91224.91224,0,0,0,.38581-.74036v-8.43786A.90285.90285,0,0,0,144,149.94469l-3.28119-1.19443,3.28119-1.19a.91183.91183,0,0,0,.40814-1.40343l-2.21823-2.88312,2.32-5.017a.90525.90525,0,0,0-1.1295-1.23131l-4.25311,1.5657V136.0917h.96345a.91274.91274,0,0,0,.85833-.61176l1.432-4.23181,17.53914-.0347ZM126.22944,69.67974c10.28768.46082,19.70583,3.48366,25.96919,8.36193a18.11965,18.11965,0,0,1,5.50331,6.87445,29.41746,29.41746,0,0,1,2.21836,12.1296v32.35373H143.79868V118.26193l-5.65883-6.89357V99.69168l2.80927-2.08791V83.69489h-2.80927V73.16341h-4.98672V75.1597h-.86392V73.16341h-5.193V75.1597h-.86679v-5.48Zm2.67905,7.29278V74.97509h1.56789v1.99744h4.48511V74.97509h1.36495v4.262h-3.05754v1.81512h3.05754v2.64264h-3.634v2.51632h-6.13191V83.69489h-3.50439v-8.7198h1.36048v1.99744ZM111.205,65.94563h1.33815v1.99618h4.48455V65.94563h1.57177v1.99618h4.49188V65.94563h1.32521v4.59186h-9.61717V72.347h9.61717v.8164h-3.17387v5.08738h-3.73138v1.80837h3.73138v3.63574h-6.85934V73.16341H111.205ZM109.395,69.67974v4.8525h0v.62745h-.86221V73.16341h-5.19915V75.1597h-.86336V73.16341H97.48959V83.69489H94.68537V97.60377l2.80869,2.08791v11.67668l-5.65986,6.89357v11.13752H75.717V97.04572a29.44825,29.44825,0,0,1,2.21273-12.1296,18.16817,18.16817,0,0,1,5.5095-6.87445c6.25994-4.87827,15.67647-7.90111,25.95568-8.36193m35.16138,73.19581a5.98178,5.98178,0,0,0,4.90908,0,5.78952,5.78952,0,0,1,2.40776-.5032,5.859,5.859,0,0,1,2.4168.5032,7.022,7.022,0,0,0,1.71217.47983c.08326-.31871.16491-.63524.23982-.95623,0,0,0-.00893.00617-.01122.07547-.322.15105-.6452.22148-.96952a4.61491,4.61491,0,0,1-1.47065-.3881,8.03583,8.03583,0,0,0-6.24711,0,4.00429,4.00429,0,0,1-3.48584,0c-.132-.05142-.27576-.10742-.42887-.16216l-.82648,1.80161c.18334.06608.36176.13089.54568.20579M130.59215,79.23714H126.4397v1.81512h4.15245ZM144.014,197.19032c3.52672-2.37535,6.87227-4.85468,9.97287-7.418,19.40612-16.01694,29.668-34.9785,29.668-54.82471l-.00218-43.82129c0-6.3243,2.00122-9.57194,5.46874-13.03659l16.244-16.244L176.01831,32.498l-8.88757,8.88757a22.32694,22.32694,0,0,0-19.65715-11.81536c-6.34663,0-12.29347,3.03074-19.202,9.79788a13.85106,13.85106,0,0,0-2.8025,3.34944V29.1251h13.81428V13.82161H125.469V0H110.16613V13.82161H96.34726V29.1251h13.81886V42.71756a14.04476,14.04476,0,0,0-2.8065-3.34944c-6.90469-6.76714-12.84822-9.79788-19.20034-9.79788A22.33027,22.33027,0,0,0,68.4987,41.38559L59.61457,32.498,30.26627,61.84574l16.244,16.244c3.46247,3.46465,5.47205,6.71229,5.47205,13.03659v43.82129c0,19.84622,10.25584,38.80778,29.66471,54.82471,3.10289,2.56327,6.444,5.0426,9.97069,7.418a10.893,10.893,0,0,0-7.4286,3.71522,12.61834,12.61834,0,0,0-2.9815,8.32723,12.155,12.155,0,0,0,4.07687,9.60549c3.846,3.77328,9.01274,7.88656,15.51878,7.88656a18.11832,18.11832,0,0,0,17.01176-11.963,18.11812,18.11812,0,0,0,17.01669,11.963c6.52952,0,11.72031-4.15016,15.56861-7.9302a12.31224,12.31224,0,0,0,4.02658-9.56186,12.64013,12.64013,0,0,0-2.98711-8.32723,10.87178,10.87178,0,0,0-7.42585-3.71522M147.47359,31.7107a20.196,20.196,0,0,1,18.07026,11.26739,22.15949,22.15949,0,0,0-5.15449,7.60141,20.91749,20.91749,0,0,0-24.40338-14.902c3.95605-2.70974,7.6612-3.96682,11.48761-3.96682m-18.42538,9.85377a1.32729,1.32729,0,0,0,.20865-.15655c.27061-.27851.5474-.54683.82476-.81411,2.32669-1.94144,5.64257-3.21076,10.16572-3.21076a18.76247,18.76247,0,0,1,18.75588,18.73561v6.01785A55.46659,55.46659,0,0,0,148.5606,57.01a10.80732,10.80732,0,0,0,.25332-2.316c0-7.09261-5.86577-10.9173-11.392-10.9173a1.07081,1.07081,0,1,0,0,2.14162c3.5803,0,9.25814,2.37764,9.25814,8.77569a9.213,9.213,0,0,1-9.11054,9.06748c-7.94531,0-12.10051-6.37114-12.10051-12.66864a13.823,13.823,0,0,1,3.57917-9.5283M98.47994,26.9891V15.96334H112.306V2.14276h11.02587V15.96334h13.81829V26.9891H123.33189V52.69764H112.306V26.9891ZM111.86938,54.865l11.8852-.00332a14.92157,14.92157,0,0,0,3.22588,6.43046,13.57473,13.57473,0,0,0,10.58909,4.612,11.41858,11.41858,0,0,0,10.32959-6.85429,50.282,50.282,0,0,1,13.39778,7.30721,32.97822,32.97822,0,0,1,9.88343,12.42826,43.91448,43.91448,0,0,1,3.54287,18.26036V132.731c0,17.42609-7.17023,32.374-21.32465,44.43088-10.24519,8.73091-20.99862,17.34444-30.22665,21.25308l-5.35684,2.27022-5.35467-2.27022c-9.22917-3.90864-19.98158-12.52217-30.23227-21.25308C68.07991,165.105,60.91184,150.15712,60.91184,132.731V97.04572a43.90549,43.90549,0,0,1,3.54241-18.26036A32.94441,32.94441,0,0,1,74.33538,66.3571a50.30648,50.30648,0,0,1,13.39606-7.30721,11.429,11.429,0,0,0,10.333,6.85429c7.73838,0,12.41475-5.10857,13.80491-11.03915m-5.48888-13.4571a.91247.91247,0,0,0,.20749.15655,13.84278,13.84278,0,0,1,3.57814,9.5283c0,6.2975-4.15863,12.66864-12.10166,12.66864a9.21054,9.21054,0,0,1-9.10733-9.06748c0-6.398,5.678-8.77569,9.25323-8.77569a1.07081,1.07081,0,1,0,0-2.14162c-5.52632,0-11.39588,3.8247-11.39588,10.9173a10.736,10.736,0,0,0,.25721,2.316,55.53559,55.53559,0,0,0-10.4448,5.12655V56.11866A18.7682,18.7682,0,0,1,95.38656,37.383c4.5204,0,7.83686,1.27379,10.168,3.21191q.41021.39921.82592.813M88.15928,31.7107c3.81966,0,7.53041,1.25707,11.48875,3.96682A20.92081,20.92081,0,0,0,75.2418,50.5795a22.20139,22.20139,0,0,0-5.15667-7.60141A20.1991,20.1991,0,0,1,88.15928,31.7107M86.324,216.85983l-.02233.02016a10.86728,10.86728,0,0,1-2.95687-7.64722c0-4.95431,3.2655-9.96233,9.50873-9.96233a6.93662,6.93662,0,0,1,3.26217.822c.11853.0749.23763.14647.3534.22033l.00836-.01672a7.13728,7.13728,0,0,1,3.472,6.04464c0,4.98111-4.41859,6.83643-7.21789,6.83643a1.06915,1.06915,0,1,0,0,2.13829,10.04924,10.04924,0,0,0,6.15826-2.126,8.41247,8.41247,0,0,0,3.20571-6.84868,9.32032,9.32032,0,0,0-4.76306-8.01185,128.76321,128.76321,0,0,1-14.317-10.20271c-18.90407-15.60433-28.89537-33.99329-28.89537-53.17851V91.12636c0-7.03443-2.33561-10.78767-6.09549-14.54869L33.28808,61.84574,59.61457,35.52544,68.18,44.08526c5.39715,5.396,6.30632,9.38745,6.30632,16.26968v3.22531c-.4993.35684-.99082.72135-1.46779,1.09262A35.075,35.075,0,0,0,62.5088,77.89853a46.01288,46.01288,0,0,0-3.7403,19.14719V132.731c0,18.08263,7.428,33.57621,22.07452,46.05922,9.73077,8.28692,19.93292,16.49,28.99708,20.7934v5.61291a14.85288,14.85288,0,0,1-14.83878,14.8327,12.13854,12.13854,0,0,1-8.05159-2.56c-.21026-.20018-.41547-.40036-.62573-.60947m30.42305-8.21649a15.95985,15.95985,0,0,1-15.94376,15.93872,15.27212,15.27212,0,0,1-8.23333-2.5856,17.92283,17.92283,0,0,0,2.43135.17327,16.99064,16.99064,0,0,0,16.9726-16.97317l.005-4.66126,4.7681,2.02206Zm1.05449-6.76714.01351-.03241.01168.03241Zm17.0302,22.70586a15.95548,15.95548,0,0,1-15.94536-15.93872l-.00447-6.086,4.77589-2.02206v4.66126A16.9929,16.9929,0,0,0,140.631,222.16973a17.74549,17.74549,0,0,0,2.43238-.17327,15.23817,15.23817,0,0,1-8.23161,2.5856M149.3328,216.88l-.02508-.02016c-.21026.20911-.41547.40929-.62858.60947a12.1295,12.1295,0,0,1-8.04816,2.56,14.85263,14.85263,0,0,1-14.83934-14.8327v-5.61291c9.06473-4.30339,19.26354-12.50648,28.99649-20.7934,14.64649-12.483,22.07784-27.97659,22.07784-46.05922V97.04572a45.98566,45.98566,0,0,0-3.73915-19.14719A35.12441,35.12441,0,0,0,162.611,64.67287c-.47537-.37127-.9607-.73578-1.4679-1.09594V63.1027h.00229V60.35494c0-6.88223.90974-10.87367,6.31079-16.26968l8.56211-8.55982,26.32248,26.32031L187.61,76.57767c-3.76389,3.761-6.095,7.5098-6.095,14.54869v43.82129c0,19.18521-9.9913,37.57418-28.897,53.17851a128.77106,128.77106,0,0,1-14.32217,10.20271,9.32527,9.32527,0,0,0-4.75459,8.01185c0,5.82763,4.81666,8.97472,9.35836,8.97472a1.06915,1.06915,0,0,0,0-2.13829c-2.79254,0-7.22121-1.85532-7.22121-6.83643a7.14388,7.14388,0,0,1,3.47358-6.04464l.0134.01672c.11578-.07386.231-.14544.34779-.22033a6.95618,6.95618,0,0,1,3.26447-.822c6.2415,0,9.50929,5.008,9.50929,9.96233A10.87649,10.87649,0,0,1,149.3328,216.88m-.581-66.59427a4.36763,4.36763,0,0,1-1.74572.39818,3.492,3.492,0,0,1-1.0333-.15094,2.16308,2.16308,0,0,1,.01557.26614v1.7692a5.85387,5.85387,0,0,0,1.01773.09058,6.26154,6.26154,0,0,0,2.45929-.53343,5.861,5.861,0,0,1,2.40776-.50216,5.14059,5.14059,0,0,1,.75376.0481l.00836-.00447c.33382-.60283.65035-1.21676.9489-1.83413a7.94311,7.94311,0,0,0-1.711-.17888,7.75917,7.75917,0,0,0-3.12132.6318m22.87134,52.21563a6.08863,6.08863,0,0,0-4.14121-2.202,5.771,5.771,0,0,0-.586-.02794,6.11705,6.11705,0,0,0-1.81283.2784,6.14269,6.14269,0,0,0-.68116-6.79841l-3.69163-4.47116a.35227.35227,0,0,0-.25057-.11635.341.341,0,0,0-.20967.07386l-4.4801,3.69838a6.12607,6.12607,0,0,0,2.38543,10.65116l-.12918,1.35762-2.00568,1.55677a.33477.33477,0,0,0-.06654.46071l.76831,1.039a.33557.33557,0,0,0,.2248.12414c.0134,0,.0268.0055.0402.0055a.35917.35917,0,0,0,.20522-.06928l1.86711-1.446,1.72671.15769a6.11934,6.11934,0,0,0,5.53469,5.72594c.15552.01122.32271.02462.48029.03126h.11578a6.04358,6.04358,0,0,0,3.88014-1.39793l4.47675-3.70285a.32953.32953,0,0,0,.04306-.46185Zm-10.64555,2.33286-.97352-.09058.0978-.98188a5.684,5.684,0,0,0,1.3969-.25721,6.0797,6.0797,0,0,0-.52117,1.32968m-.6878-3.05525.56641-5.774a.33553.33553,0,0,0-.07547-.236.29471.29471,0,0,0-.218-.11967l-1.29282-.12414h-.02966a.32141.32141,0,0,0-.3226.29191l-.56985,5.79534a4.17428,4.17428,0,0,1-1.33643-7.172l3.227-2.66279,2.66107,3.2197a4.16942,4.16942,0,0,1-2.60965,6.78169m9.26548,7.8474a4.12059,4.12059,0,0,1-2.63817.94386,4.0417,4.0417,0,0,1-.41546-.01454,4.18379,4.18379,0,0,1-2.825-1.49745,4.08518,4.08518,0,0,1-.90745-2.09581l5.78789.53457a.12432.12432,0,0,0,.03252.00344.33223.33223,0,0,0,.32993-.29866l.118-1.28834a.35465.35465,0,0,0-.07444-.24267.33166.33166,0,0,0-.22194-.11635l-5.78022-.53675a4.13723,4.13723,0,0,1,1.28559-1.83631,4.06715,4.06715,0,0,1,2.64939-.95955c.1286,0,.26328.01008.40482.02016a4.1486,4.1486,0,0,1,2.82151,1.49962l2.65832,3.22084ZM64.56155,197.43081l2.51575.06482a.31311.31311,0,0,0,.226-.08944.29964.29964,0,0,0,.10225-.23259l.06265-2.50624a5.87381,5.87381,0,0,0,3.29687-1.58128,5.9614,5.9614,0,0,0,.21644-8.41782L67.093,180.5851a.33094.33094,0,0,0-.23431-.10169.31969.31969,0,0,0-.22709.08715l-4.0803,3.8807a5.9467,5.9467,0,0,0-1.46779,6.41706,6.03062,6.03062,0,0,0-2.22327-.501h-.156a5.91878,5.91878,0,0,0-4.09931,1.64518l-4.07469,3.88058a.32573.32573,0,0,0-.01844.46414l3.89066,4.0842a5.87511,5.87511,0,0,0,4.15806,1.83974c.05371.00332.10228.00332.15987.00332.056,0,.12471,0,.18907-.00332a5.925,5.925,0,0,0,5.65207-4.85033m.93379-1.9325-.89014-.02233a5.61832,5.61832,0,0,0-.32433-1.25032,5.63268,5.63268,0,0,0,1.233.387Zm-8.50554,1.72786,5.58612.14979a3.99,3.99,0,0,1-3.86157,2.95584h-.1001a3.96606,3.96606,0,0,1-2.80044-1.23245l-2.76563-2.90992,2.90328-2.76116a3.97428,3.97428,0,0,1,2.76289-1.106h.09505a4.03249,4.03249,0,0,1,3.79617,3.10117s-5.56653-.15105-5.575-.15105a.305.305,0,0,0-.22022.09173.32846.32846,0,0,0-.1057.23156l-.03241,1.28937a.33406.33406,0,0,0,.31756.34115m6.91144-11.35683,2.90317-2.76345,2.76849,2.9066a4.005,4.005,0,0,1-2.065,6.66763l.13021-5.58726a.33548.33548,0,0,0-.09219-.22927.31292.31292,0,0,0-.22869-.10742l-1.3007-.02577a.34438.34438,0,0,0-.23144.0907.332.332,0,0,0-.09287.23373l-.12918,5.56149a4.02254,4.02254,0,0,1-2.9082-3.94437,3.94027,3.94027,0,0,1,1.24642-2.80262m-8.39434,1.6406,2.46261.321h.038a.32515.32515,0,0,0,.19961-.06825.34029.34029,0,0,0,.13032-.218l.30187-2.457a5.94873,5.94873,0,0,0,5.64658-5.16228,5.85258,5.85258,0,0,0-1.18378-4.35148l-3.42491-4.41756a.331.331,0,0,0-.26064-.12414.33494.33494,0,0,0-.20018.06608l-4.4068,3.41758a5.91118,5.91118,0,0,0-2.09913,6.15882,5.84015,5.84015,0,0,0-2.12043-.70349,6.49621,6.49621,0,0,0-.75537-.04581,5.85411,5.85411,0,0,0-3.60734,1.24024l-4.41012,3.41426a.33537.33537,0,0,0-.05818.46414l3.42331,4.4163a5.86171,5.86171,0,0,0,3.92307,2.23334,5.5802,5.5802,0,0,0,.74483.047c.057,0,.12254,0,.184-.00447a5.91882,5.91882,0,0,0,5.47262-4.2262m1.09148-1.82852-.85442-.10284a6.02677,6.02677,0,0,0-.18289-1.23463,5.94508,5.94508,0,0,0,1.14358.48533Zm-2.09352-6.99412a3.92341,3.92341,0,0,1,1.49745-2.63038l3.12751-2.42677,2.434,3.13587a3.96619,3.96619,0,0,1-.7146,5.54248,3.84221,3.84221,0,0,1-1.96434.79739l.68219-5.47434a.32776.32776,0,0,0-.2863-.36566l-1.28169-.15884c-.01557,0-.02955-.00664-.0402-.00664a.33531.33531,0,0,0-.20132.0726.32819.32819,0,0,0-.12471.2193l-.68047,5.45751a3.98714,3.98714,0,0,1-2.44749-4.16253m-6.44958,7.8687,5.47606.70681a3.95486,3.95486,0,0,1-6.80574,1.002l-2.42848-3.13026,3.12464-2.42574a3.89156,3.89156,0,0,1,2.41291-.832,4.23766,4.23766,0,0,1,.50709.03126,3.94831,3.94831,0,0,1,3.42663,3.41209l-5.46369-.7012a.1884.1884,0,0,0-.038-.00229.32829.32829,0,0,0-.19961.06711.31444.31444,0,0,0-.12414.21919L47.773,186.1869a.34129.34129,0,0,0,.28229.36909m33.99386,10.51809a6.06682,6.06682,0,0,0-2.18525-4.13791l-4.47619-3.69838a.37107.37107,0,0,0-.21083-.07386.33335.33335,0,0,0-.25377.11635l-3.699,4.47116a6.12685,6.12685,0,0,0-1.36826,4.488,6.00535,6.00535,0,0,0,.69328,2.31042,6.07389,6.07389,0,0,0-1.81-.2784,5.76853,5.76853,0,0,0-.58828.02794,6.08415,6.08415,0,0,0-4.14455,2.202L60.314,206.968a.33614.33614,0,0,0,.042.46185l4.47837,3.70285a6.06091,6.06091,0,0,0,3.88287,1.39793h.1191c.15552-.00664.31768-.02.47754-.03126a6.14687,6.14687,0,0,0,5.53641-5.72594l1.72729-.15769,1.86654,1.446a.32945.32945,0,0,0,.19789.06928c.01341,0,.02691-.0055.04592-.0055a.337.337,0,0,0,.22079-.12414l.76945-1.039a.33362.33362,0,0,0-.06538-.46071L77.61153,204.945l-.13811-1.35762a6.10331,6.10331,0,0,0,4.57571-6.51325M71.955,209.05824a4.18385,4.18385,0,0,1-2.825,1.49745,3.91951,3.91951,0,0,1-.41273.01454,4.10824,4.10824,0,0,1-2.63645-.94386l-3.22428-2.66394,2.65729-3.22084a4.12527,4.12527,0,0,1,2.82266-1.49962c.137-.01008.26454-.02016.40265-.02016a4.09685,4.09685,0,0,1,2.65271.95955,4.13875,4.13875,0,0,1,1.27541,1.83631l-5.78012.53675a.32913.32913,0,0,0-.22091.11635.34482.34482,0,0,0-.07215.24267l.12139,1.28834a.32439.32439,0,0,0,.32592.29866.12212.12212,0,0,0,.03252-.00344l5.79018-.53457a4.15931,4.15931,0,0,1-.90915,2.09581m2.69577-4.224a5.67535,5.67535,0,0,0-.51787-1.32968,5.787,5.787,0,0,0,1.39737.25721l.0979.98188Zm2.63312-3.22187-.5687-5.79534a.32178.32178,0,0,0-.32373-.29191h-.03528l-1.281.12414a.30956.30956,0,0,0-.2248.11967.32772.32772,0,0,0-.07547.236l.56309,5.774a4.18068,4.18068,0,0,1-3.53955-3.72186,4.13123,4.13123,0,0,1,.9394-3.05983l2.65489-3.2197,3.2276,2.66279a4.12187,4.12187,0,0,1,1.48909,2.82151,4.19493,4.19493,0,0,1-2.82552,4.35045M135.892,123.66458h-3.411v1.80837h3.411Zm-49.72452,19.211a5.98554,5.98554,0,0,0,4.91068,0c.18117-.0749.35615-.13971.54179-.20579l-.82751-1.80161c-.15094.05474-.29248.11074-.42441.16216a4.00455,4.00455,0,0,1-3.486,0,8.048,8.048,0,0,0-6.252,0,4.5933,4.5933,0,0,1-1.46229.3881h0c.06986.32432.13811.64749.21862.96619v.01683c.07776.31871.16388.63524.24829.95394h0a7.12107,7.12107,0,0,0,1.7133-.47983,6.02164,6.02164,0,0,1,4.81952,0m.7146,7.41017a7.76278,7.76278,0,0,0-3.11846-.6318,7.95037,7.95037,0,0,0-1.71664.17888c.2997.61737.62069,1.23131.95554,1.83184v.00676a5.26156,5.26156,0,0,1,.76109-.0481,5.85556,5.85556,0,0,1,2.40386.50216,6.25212,6.25212,0,0,0,2.4554.53343,5.76245,5.76245,0,0,0,1.01429-.09058v-1.7692a2.07709,2.07709,0,0,1,.02233-.26614,3.4954,3.4954,0,0,1-1.03662.15094,4.36372,4.36372,0,0,1-1.7408-.39818M45.43554,176.62286a6.23721,6.23721,0,0,0,4.93026,2.73093l.55645.02245a.33267.33267,0,0,0,.28069-.15884l.29912-.47193a6.24838,6.24838,0,0,0,.50722-5.59962,6.27054,6.27054,0,0,0,4.82512-2.89309l.29351-.46747a.32108.32108,0,0,0,.0134-.32329l-.25274-.49541a6.24829,6.24829,0,0,0-4.60423-3.25543,6.241,6.241,0,0,0-.09952-5.632l-.25893-.48315a.322.322,0,0,0-.27794-.18l-.54567-.01786c-.0772-.00344-.16057-.00344-.24049-.00344a6.16559,6.16559,0,0,0-4.87267,2.36424,6.27665,6.27665,0,0,0-4.93243-2.73665s-.55577-.01672-.56081-.01672a.33458.33458,0,0,0-.27908.15208l-.29294.46414a6.24265,6.24265,0,0,0-.51051,5.61188,6.234,6.234,0,0,0-4.824,2.89423l-.28916.44731a.33774.33774,0,0,0-.014.31653l.23489.50778a6.26152,6.26152,0,0,0,4.61143,3.2655,6.23121,6.23121,0,0,0,.09963,5.6365l.25435.48648a.34115.34115,0,0,0,.283.17441l.54464.01569c.08383.00676.16548.01237.24828.01237h0a6.19509,6.19509,0,0,0,4.87312-2.36756m4.6032.75044a4.307,4.307,0,0,1-3.21809-2.2267,3.88969,3.88969,0,0,1-.35455-.95165l-.30977-1.19111a3.66816,3.66816,0,0,0,.41044-.0749,3.74735,3.74735,0,0,0,2.01862-1.20222c.00951-.00332.01294-.01122.02073-.01786l.82087.92142a4.66116,4.66116,0,0,1,.581.82763,4.31322,4.31322,0,0,1,.03081,3.9154m1.37389-9.76879h.14875a4.26431,4.26431,0,0,1,3.39915,1.928,4.23649,4.23649,0,0,1-3.383,1.6753,1.4154,1.4154,0,0,1-.15324-.00561,4.27891,4.27891,0,0,1-1.00147-.15884l-1.19042-.34218a3.78115,3.78115,0,0,0,.21575-2.36539,2.50069,2.50069,0,0,0-.11349-.3936l1.21012-.25274a4.4457,4.4457,0,0,1,.86784-.085m-4.58363-3.3562a4.373,4.373,0,0,1,.43174-.9181,4.30907,4.30907,0,0,1,3.37235-1.98289,4.29524,4.29524,0,0,1-.31813,3.90188,4.39537,4.39537,0,0,1-.6453.78732l-.888.85442a3.674,3.674,0,0,0-1.03-.9528,3.98033,3.98033,0,0,0-1.30677-.51442Zm-1.11266,3.05089a1.91059,1.91059,0,0,1,1.83516,1.46721,1.89522,1.89522,0,0,1-1.41923,2.26575,2.20416,2.20416,0,0,1-.42887.04592,1.88885,1.88885,0,0,1-1.59193-2.89206,2.78619,2.78619,0,0,1,.18563-.24381,1.90854,1.90854,0,0,1,.99368-.59275,1.77322,1.77322,0,0,1,.42555-.05027m-4.333-6.29521a4.29863,4.29863,0,0,1,3.2158,2.22773,4.34312,4.34312,0,0,1,.35947.94948l.29753,1.19661c-.13583.0213-.27406.03917-.3998.06825a3.86086,3.86086,0,0,0-2.03706,1.228l-.82373-.92153a4.02707,4.02707,0,0,1-.58542-.83656,4.29184,4.29184,0,0,1-.0268-3.912m-1.37617,9.77887c-.04924,0-.09952,0-.14819-.00344a4.29125,4.29125,0,0,1-3.40475-1.93021,4.249,4.249,0,0,1,3.38012-1.67862h.15655a4.3999,4.3999,0,0,1,1.00937.16777l1.18435.33989a4.01665,4.01665,0,0,0-.10856,2.75681l-1.20828.24828a3.87163,3.87163,0,0,1-.86062.09952m4.15749,4.26422a4.31745,4.31745,0,0,1-3.378,1.98507,4.29408,4.29408,0,0,1,.322-3.90188,4.15764,4.15764,0,0,1,.6381-.784l.889-.85889a3.78794,3.78794,0,0,0,1.03284.95062,3.7466,3.7466,0,0,0,1.30849.51888L44.589,174.13a4.14058,4.14058,0,0,1-.42441.91707" style="fill:#fff"/><path d="M79.29748,161.35969l-1.163,2.3876-2.579.3802,1.86928,1.86208-.445,2.62259,2.31775-1.24253,2.31,1.24253-.44067-2.62259,1.87043-1.86208-2.585-.3802ZM76.29193,73.89816l2.30881-1.24253,2.315,1.24253-.44239-2.62592,1.8733-1.86093-2.58789-.38238-1.158-2.39218-1.15756,2.39218-2.59007.38238,1.876,1.86093ZM65.11456,119.81079l2.31832-1.24356,2.31225,1.24356-.44008-2.62362,1.87042-1.85978-2.585-.38593L67.43288,112.555l-1.16076,2.38646-2.584.38593,1.8749,1.85978Zm0-25.41778,2.31832-1.24138L69.74513,94.393,69.305,91.76263l1.87042-1.85532-2.585-.38249-1.15757-2.38989-1.16076,2.38989-2.584.38249,1.8749,1.85532Zm3.80523,46.81962-1.15973-2.38989L66.607,141.21263l-2.59008.38467,1.87158,1.85646-.44227,2.62809,2.31385-1.24138,2.31385,1.24138-.43952-2.62809,1.87043-1.85646Zm96.63185,4.86922,2.32061-1.24138,2.31442,1.24138-.4417-2.62809,1.87043-1.85646-2.58572-.38467-1.15744-2.38989-1.1603,2.38989-2.5895.38467,1.88,1.85646Zm-10.83118-72.1837,2.30664-1.24253,2.31948,1.24253-.44343-2.62592,1.86872-1.86093-2.58114-.38238-1.16363-2.39218-1.157,2.39218-2.58446.38238,1.86929,1.86093ZM165.886,119.81079l2.315-1.24356,2.31557,1.24356-.44571-2.62362,1.876-1.85978-2.59064-.38593L168.201,112.555l-1.15973,2.38646-2.585.38593,1.87547,1.85978ZM98.50056,179.66586l-1.15515-2.391-1.15584,2.391-2.58847.38135,1.87043,1.85761-.44227,2.62695,2.31614-1.24241,2.31042,1.24241-.445-2.62695,1.87822-1.85761Zm20.46187,11.76394-1.16088-2.38543-1.15962,2.38543-2.58732.388,1.87261,1.85646-.43723,2.62592,2.31156-1.2447,2.31053,1.2447-.43952-2.62592,1.8749-1.85646Zm20.48031-11.76394-1.1524-2.391-1.1603,2.391-2.58457.38135,1.87,1.85761-.443,2.62695,2.31786-1.24241,2.316,1.24241-.44559-2.62695,1.872-1.85761ZM165.886,94.393l2.315-1.24138L170.5166,94.393l-.44571-2.63038,1.876-1.85532-2.59064-.38249L168.201,87.13492l-1.15973,2.38989-2.585.38249,1.87547,1.85532Zm-8.39319,69.35428-1.15572-2.3876-1.15756,2.3876-2.58789.3802,1.87273,1.86208-.44571,2.62259,2.31843-1.24253,2.31661,1.24253-.44126-2.62259,1.87045-1.86208Z" style="fill:#fff"/><polygon points="112.195 18.635 109.764 24.263 108.474 24.263 106.046 18.635 107.454 18.635 109.17 22.657 110.902 18.635 112.195 18.635" style="fill:#fff"/><polygon points="117.023 23.216 117.023 24.263 112.664 24.263 112.664 18.635 116.92 18.635 116.92 19.682 113.964 19.682 113.964 20.9 116.57 20.9 116.57 21.911 113.964 21.911 113.964 23.216 117.023 23.216" style="fill:#fff"/><path d="M121.63919,24.26252l-1.07579-1.56788h-1.20119v1.56788h-1.3V18.63507h2.43627a3.2042,3.2042,0,0,1,1.29727.24931,1.97715,1.97715,0,0,1,.84778.70578,2.01578,2.01578,0,0,1,.29351,1.08919,1.90849,1.90849,0,0,1-.303,1.07922,1.87768,1.87768,0,0,1-.85671.69112l1.26486,1.81283Zm-.32592-4.31117a1.37356,1.37356,0,0,0-.89084-.25389h-1.06021v1.9593h1.06021a1.36771,1.36771,0,0,0,.89084-.25606.89535.89535,0,0,0,.30634-.72135.88521.88521,0,0,0-.30634-.728" style="fill:#fff"/><path d="M127.6749,23.05927h-2.61744l-.49541,1.20325h-1.33529l2.514-5.63192h1.28215l2.51678,5.63192H128.172Zm-.40757-.99208-.89529-2.155-.89292,2.155Z" style="fill:#fff"/><path d="M53.94028,257.054v10.10048H78.51371V282.135H53.94028V300.9864H34.07972v-58.913H81.96589V257.054Z" style="fill:#fff"/><path d="M126.82613,269.93185H144.078v24.9093c-7.15438,4.88305-17.00183,7.49177-25.66842,7.49177-19.02012,0-32.90715-12.7092-32.90715-30.8015,0-18.09532,13.887-30.80452,33.32587-30.80452,11.61571,0,20.95707,4.03959,26.9306,11.36267l-12.70618,11.194c-3.7022-4.29263-7.99483-6.47961-13.21226-6.47961-8.754,0-14.30877,5.63615-14.30877,14.72749,0,8.83529,5.55481,14.72749,14.05573,14.72749a18.52141,18.52141,0,0,0,7.23873-1.43088Z" style="fill:#fff"/><path d="M201.55705,286.00587V300.9864H152.57588v-58.913h47.88768V257.054H172.10208v6.90134h24.9093v14.30877h-24.9093v7.7418Z" style="fill:#fff"/><path d="M3.86789,323.60027v6.335h10.0553v3.27445H3.86789v7.97074H0V320.359H15.20193v3.24131Z" style="fill:#fff"/><path d="M17.7986,320.44632a2.2648,2.2648,0,0,1,2.38128-2.22916,2.21435,2.21435,0,0,1,2.37977,2.1418,2.28342,2.28342,0,0,1-2.37977,2.31953A2.26534,2.26534,0,0,1,17.7986,320.44632Zm.50457,4.84992h3.72028v15.88424H18.30317Z" style="fill:#fff"/><path d="M25.09,339.605l1.42786-2.8256a10.68962,10.68962,0,0,0,5.53373,1.57547c2.34965,0,3.33168-.65368,3.33168-1.75621,0-3.03346-9.81732-.17773-9.81732-6.51275,0-3.00635,2.70812-4.9674,6.9887-4.9674a12.66059,12.66059,0,0,1,5.95245,1.36762l-1.42786,2.8256a8.71063,8.71063,0,0,0-4.55169-1.18989c-2.26229,0-3.33168.74406-3.33168,1.78634,0,3.21119,9.81431.35546,9.81431,6.573,0,2.97321-2.73523,4.90715-7.19656,4.90715A12.61643,12.61643,0,0,1,25.09,339.605Z" style="fill:#fff"/><path d="M40.92006,333.23986c0-4.75955,3.56966-8.12135,8.59731-8.12135,3.09371,0,5.56385,1.27725,6.78386,3.68714l-2.85573,1.66584a4.50078,4.50078,0,0,0-3.95826-2.202,4.97131,4.97131,0,0,0,0,9.93781,4.49445,4.49445,0,0,0,3.95826-2.202l2.85573,1.66584c-1.22,2.37977-3.69016,3.71727-6.78386,3.71727C44.48972,341.38833,40.92006,337.99941,40.92006,333.23986Z" style="fill:#fff"/><path d="M72.81807,331.86923v9.31124H69.30865v-1.93394c-.89467,1.37063-2.61775,2.1418-4.99752,2.1418-3.62991,0-5.92232-1.99118-5.92232-4.75955,0-2.64787,1.78634-4.72942,6.60613-4.72942H69.1008v-.238c0-2.17192-1.31038-3.44917-3.95826-3.44917a7.86647,7.86647,0,0,0-4.8198,1.57547l-1.458-2.70812a11.18278,11.18278,0,0,1,6.72361-1.96105C70.17019,325.11851,72.81807,327.29043,72.81807,331.86923Zm-3.71727,4.34384V334.3695H65.263c-2.53039,0-3.2142.95191-3.2142,2.11167,0,1.33749,1.12964,2.202,3.03346,2.202A4.054,4.054,0,0,0,69.1008,336.21307Z" style="fill:#fff"/><path d="M77.58665,319.10883h3.71727v22.07165H77.58665Z" style="fill:#fff"/><path d="M89.5789,319.04858h4.371l-5.17525,4.07574H85.5604ZM86.187,325.29624h3.71727v15.88424H86.187Z" style="fill:#fff"/><path d="M108.0839,331.86923v9.31124h-3.50941v-1.93394c-.89467,1.37063-2.61775,2.1418-4.99753,2.1418-3.62991,0-5.91931-1.99118-5.91931-4.75955,0-2.64787,1.78332-4.72942,6.60312-4.72942h4.10285v-.238c0-2.17192-1.30737-3.44917-3.95524-3.44917a7.86647,7.86647,0,0,0-4.8198,1.57547l-1.455-2.70812a11.16709,11.16709,0,0,1,6.7206-1.96105C105.436,325.11851,108.0839,327.29043,108.0839,331.86923Zm-3.72028,4.34384V334.3695h-3.83475c-2.53039,0-3.2142.95191-3.2142,2.11167,0,1.33749,1.12964,2.202,3.03346,2.202A4.04733,4.04733,0,0,0,104.36362,336.21307Z" style="fill:#fff"/><path d="M135.63807,330.53174h3.66v8.29908a13.17792,13.17792,0,0,1-8.15148,2.64787c-6.45551,0-11.21506-4.49145-11.21506-10.709s4.75955-10.709,11.27531-10.709a10.75721,10.75721,0,0,1,8.35933,3.39193l-2.44,2.37977a7.72817,7.72817,0,0,0-5.74158-2.37977c-4.4312,0-7.555,3.00333-7.555,7.31705a7.16585,7.16585,0,0,0,7.52491,7.31705,8.42724,8.42724,0,0,0,4.28359-1.06939Z" style="fill:#fff"/><path d="M158.91166,334.42975H146.44947c.44583,2.31953,2.37977,3.80764,5.14513,3.80764a5.69189,5.69189,0,0,0,4.31372-1.72609l1.99118,2.2894a8.04734,8.04734,0,0,1-6.39527,2.58763c-5.32286,0-8.775-3.419-8.775-8.14847a7.90017,7.90017,0,0,1,8.21173-8.12135c4.63905,0,8.031,3.24131,8.031,8.20871C158.9719,333.62545,158.94178,334.07128,158.91166,334.42975Zm-12.49231-2.47015h9.013a4.32532,4.32532,0,0,0-4.49145-3.86789A4.39013,4.39013,0,0,0,146.41935,331.9596Z" style="fill:#fff"/><path d="M178.19686,332.07709v9.10339h-3.71727V332.553c0-2.8256-1.39774-4.19322-3.77751-4.19322-2.64787,0-4.43421,1.60559-4.43421,4.78967v8.031H162.5506V325.29624h3.53954v2.05143a6.90624,6.90624,0,0,1,5.47348-2.22916C175.37126,325.11851,178.19686,327.29043,178.19686,332.07709Z" style="fill:#fff"/><path d="M197.955,334.42975H185.49283c.44583,2.31953,2.37977,3.80764,5.14513,3.80764a5.69643,5.69643,0,0,0,4.31372-1.72609l1.99419,2.2894a8.05387,8.05387,0,0,1-6.39828,2.58763c-5.32286,0-8.775-3.419-8.775-8.14847a7.90017,7.90017,0,0,1,8.21173-8.12135c4.63905,0,8.031,3.24131,8.031,8.20871C198.01526,333.62545,197.98513,334.07128,197.955,334.42975ZM185.4627,331.9596h9.013a4.32732,4.32732,0,0,0-4.49145-3.86789A4.39013,4.39013,0,0,0,185.4627,331.9596Z" style="fill:#fff"/><path d="M210.7847,325.11851V328.658a4.633,4.633,0,0,0-.86154-.09037c-2.8256,0-4.61194,1.66584-4.61194,4.91017v7.70263H201.594V325.29624h3.53954v2.31953C206.20288,325.94992,208.13682,325.11851,210.7847,325.11851Z" style="fill:#fff"/><path d="M227.15393,331.86923v9.31124h-3.50941v-1.93394c-.89467,1.37063-2.61775,2.1418-4.99752,2.1418-3.62991,0-5.92232-1.99118-5.92232-4.75955,0-2.64787,1.78634-4.72942,6.60613-4.72942h4.10586v-.238c0-2.17192-1.31038-3.44917-3.95826-3.44917a7.86647,7.86647,0,0,0-4.81979,1.57547l-1.458-2.70812a11.18278,11.18278,0,0,1,6.72361-1.96105C224.50605,325.11851,227.15393,327.29043,227.15393,331.86923Zm-3.71727,4.34384V334.3695H219.5989c-2.53039,0-3.2142.95191-3.2142,2.11167,0,1.33749,1.12964,2.202,3.03346,2.202A4.054,4.054,0,0,0,223.43666,336.21307Z" style="fill:#fff"/><path d="M231.9195,319.10883h3.71727v22.07165H231.9195Z" style="fill:#fff"/><path d="M55.14147,354.82049v22.07466H51.57181v-2.05444a6.54871,6.54871,0,0,1-5.26563,2.26229,8.13709,8.13709,0,0,1,0-16.27283,6.504,6.504,0,0,1,5.11651,2.1418v-8.15148Zm-3.65853,14.131a4.73584,4.73584,0,1,0-4.73093,4.9674A4.643,4.643,0,0,0,51.48294,368.95153Z" style="fill:#fff"/><path d="M74.90112,370.14142H62.43894c.44583,2.31953,2.37977,3.80764,5.14513,3.80764a5.69643,5.69643,0,0,0,4.31372-1.72609l1.99419,2.29242a8.05159,8.05159,0,0,1-6.39527,2.58763c-5.32587,0-8.77805-3.42205-8.77805-8.15148a7.90189,7.90189,0,0,1,8.21173-8.12135c4.63905,0,8.031,3.24432,8.031,8.21173C74.96137,369.33712,74.93125,369.786,74.90112,370.14142Zm-12.49231-2.47015h9.013a4.32488,4.32488,0,0,0-4.49145-3.86487A4.38764,4.38764,0,0,0,62.40882,367.67127Z" style="fill:#fff"/><path d="M78.54007,354.82049h3.71727v22.07466H78.54007Z" style="fill:#fff"/><path d="M111.32973,373.65083v3.24432H95.71059V356.07063H110.911V359.315H99.57847v5.41323h10.0553v3.18106H99.57847v5.74158Z" style="fill:#fff"/><path d="M113.32694,375.31667l1.42786-2.8256a10.69954,10.69954,0,0,0,5.53373,1.57848c2.34965,0,3.33168-.6567,3.33168-1.75621,0-3.03346-9.81732-.17773-9.81732-6.51576,0-3.00333,2.70812-4.9674,6.99172-4.9674a12.65679,12.65679,0,0,1,5.94943,1.36762l-1.42786,2.82862a8.67522,8.67522,0,0,0-4.55169-1.18989c-2.25928,0-3.33168.741-3.33168,1.78332,0,3.2142,9.81732.35847,9.81732,6.573,0,2.97622-2.73825,4.91017-7.19957,4.91017A12.61573,12.61573,0,0,1,113.32694,375.31667Z" style="fill:#fff"/><path d="M140.01957,376.03061a5.85059,5.85059,0,0,1-3.56966,1.0724c-3.4823,0-5.47348-1.84357-5.47348-5.356v-7.6454h-2.61775V361.1284h2.61775v-3.62991h3.71727v3.62991h4.25347v2.97321h-4.25347v7.558c0,1.54535.77418,2.37977,2.202,2.37977a3.32757,3.32757,0,0,0,2.08155-.6567Z" style="fill:#fff"/><path d="M156.38578,367.58391v9.31124h-3.50941v-1.93394c-.89467,1.36762-2.61775,2.1418-4.99752,2.1418-3.62991,0-5.91931-1.99419-5.91931-4.75955,0-2.64787,1.78332-4.72942,6.60312-4.72942h4.10285v-.238c0-2.17192-1.30737-3.45218-3.95524-3.45218a7.86838,7.86838,0,0,0-4.81979,1.57848l-1.455-2.70812a11.14809,11.14809,0,0,1,6.7206-1.96407C153.73791,360.83018,156.38578,363.0021,156.38578,367.58391Zm-3.72028,4.34384v-1.84658h-3.83475c-2.53039,0-3.2142.95191-3.2142,2.11167,0,1.34051,1.12964,2.202,3.03346,2.202A4.045,4.045,0,0,0,152.6655,371.92775Z" style="fill:#fff"/><path d="M176.85786,354.82049v22.07466H173.2882v-2.05444a6.5446,6.5446,0,0,1-5.26563,2.26229,8.13711,8.13711,0,0,1,0-16.27283,6.50507,6.50507,0,0,1,5.118,2.1418v-8.15148Zm-3.657,14.131a4.73656,4.73656,0,1,0-4.72942,4.9674A4.6435,4.6435,0,0,0,173.20084,368.95153Z" style="fill:#fff"/><path d="M180.43656,368.95153c0-4.75955,3.56966-8.12135,8.4497-8.12135,4.93728,0,8.47681,3.36181,8.47681,8.12135s-3.53954,8.15148-8.47681,8.15148C184.00622,377.103,180.43656,373.71108,180.43656,368.95153Zm13.17913,0a4.72081,4.72081,0,1,0-4.72942,4.9674A4.62711,4.62711,0,0,0,193.61569,368.95153Z" style="fill:#fff"/></g></g></svg>